<svg xmlns="http://www.w3.org/2000/svg" viewBox="0 0 32 32">
  <defs>
    <linearGradient id="bg" x1="0%" y1="0%" x2="100%" y2="100%">
      <stop offset="0%" stop-color="#0d1522"/>
      <stop offset="45%" stop-color="#1a2840"/>
      <stop offset="100%" stop-color="#0a1018"/>
    </linearGradient>
    <linearGradient id="gold" x1="0%" y1="0%" x2="0%" y2="100%">
      <stop offset="0%" stop-color="#f4e6b8"/>
      <stop offset="40%" stop-color="#c9a24a"/>
      <stop offset="100%" stop-color="#7a5a20"/>
    </linearGradient>
    <filter id="s" x="-20%" y="-20%" width="140%" height="140%">
      <feDropShadow dx="0" dy="1" stdDeviation="0.8" flood-color="#000" flood-opacity="0.55"/>
    </filter>
  </defs>
  <rect width="32" height="32" rx="7" fill="url(#bg)"/>
  <rect x="2.5" y="2.5" width="27" height="27" rx="5.5" fill="none" stroke="url(#gold)" stroke-width="0.85" opacity="0.9"/>
  <g filter="url(#s)" fill="none" stroke="url(#gold)" stroke-width="1.35" stroke-linecap="round" stroke-linejoin="round">
    <path d="M16 6.5c-3.2 0-5.8 2.4-5.8 5.4 0 1.9.9 3.6 2.3 4.6-.4 1.1-.6 2.3-.6 3.5 0 3.4 1.9 6.2 4.1 6.2s4.1-2.8 4.1-6.2c0-1.2-.2-2.4-.6-3.5 1.4-1 2.3-2.7 2.3-4.6 0-3-2.6-5.4-5.8-5.4z"/>
    <ellipse cx="13.2" cy="11.8" rx="1.15" ry="1.35" fill="#0d1522" stroke="none"/>
    <ellipse cx="18.8" cy="11.8" rx="1.15" ry="1.35" fill="#0d1522" stroke="none"/>
    <path d="M13.5 14.8q2.5 2.8 5 0" stroke-width="1.1"/>
    <path d="M9.5 21.5l13 6.2M22.5 21.5l-13 6.2" stroke-width="1.5"/>
  </g>
</svg>
